Coordinates
version=1
nRows=13
nColumns=18
inDegrees=yes

Units are S.I. units (second, meters, Newtons, ...)
Angles are in degrees.

endheader
time	ground_thorax_rot_x	ground_thorax_rot_y	ground_thorax_rot_z	ground_thorax_tx	ground_thorax_ty	ground_thorax_tz	clav_prot	clav_elev	scapula_abduction	scapula_elevation	scapula_upward_rot	scapula_winging	plane_elv	shoulder_elv	axial_rot	elbow_flexion	pro_sup
      0.00000000	      1.80675566	     -7.89023156	    -10.34200406	     -0.00423131	      0.00403036	     -0.00078352	    -21.95849475	     -3.22891354	    -13.76797762	     -2.16803511	      9.32625510	      6.00745703	    -28.26836435	     18.44895782	     34.88573297	      0.00000000	     34.32000000
      0.01000000	      1.86215651	     -7.96821050	    -10.24665540	     -0.00423131	      0.00403036	     -0.00078352	    -21.89993201	     -3.12297105	    -13.65282176	     -2.10462531	      9.40454426	      5.95708395	    -28.46112538	     18.63382604	     34.18987679	      0.00000000	     34.32000000
      0.02000000	      1.72197426	     -7.96832546	    -10.25974906	     -0.00423131	      0.00403036	     -0.00078352	    -21.87566965	     -3.26159955	    -13.56776530	     -2.21266714	      9.41278650	      5.98784572	    -29.25503590	     18.59087339	     34.97806572	      0.00000000	     34.32000000
      0.03000000	      1.66365379	     -8.01202054	    -10.29726492	     -0.00423131	      0.00403036	     -0.00078352	    -21.86176323	     -3.25448051	    -13.54209407	     -2.20830729	      9.41974006	      5.98410602	    -29.18617466	     18.54145560	     35.00952662	      0.00000000	     34.32000000
      0.04000000	      1.82917670	     -8.07524355	    -10.36300631	     -0.00423131	      0.00403036	     -0.00078352	    -21.78105997	     -3.20333781	    -13.52292768	     -2.10815513	      9.22115446	      6.01890894	    -27.52210811	     19.25244262	     28.75389698	      0.00000000	     34.32000000
      0.05000000	      1.85445722	     -8.24115518	    -10.23287631	     -0.00423131	      0.00403036	     -0.00078352	    -21.53852035	     -3.07595343	    -13.17247223	     -1.97593507	      9.15231950	      5.99057448	    -27.56734994	     19.43831056	     28.17592229	      0.00000000	     34.32000000
      0.06000000	      1.74116026	     -7.94675865	    -10.26025113	     -0.00423131	      0.00403036	     -0.00078352	    -21.92177468	     -3.07765568	    -13.75699420	     -2.04293363	      9.30519291	      5.97319200	    -28.25221392	     18.84679947	     30.79631856	      0.00000000	     34.32000000
      0.07000000	      1.74007374	     -7.96853713	    -10.29523430	     -0.00423131	      0.00403036	     -0.00078352	    -21.90849054	     -3.16342288	    -13.66397050	     -2.13260642	      9.39096183	      5.97125070	    -28.72072944	     18.58915439	     33.29831463	      0.00000000	     34.32000000
      0.08000000	      1.76435540	     -8.03382033	    -10.24012153	     -0.00423131	      0.00403036	     -0.00078352	    -21.84027033	     -3.10522175	    -13.59550012	     -2.06547168	      9.32689067	      5.96977801	    -28.33923816	     18.72294839	     32.24323978	      0.00000000	     34.32000000
      0.09000000	      1.82665278	     -8.04926415	    -10.29981979	     -0.00423131	      0.00403036	     -0.00078352	    -21.82532695	     -3.14428399	    -13.55535528	     -2.09679353	      9.33378753	      5.97691682	    -28.31563221	     18.75140502	     32.29328475	      0.00000000	     34.32000000
      0.10000000	      2.04319155	     -8.33155520	    -10.26723750	     -0.00423131	      0.00403036	     -0.00078352	    -21.54685115	     -2.92796967	    -12.96883030	     -1.99635728	      9.62999826	      5.82757567	    -28.63500971	     18.84980434	     31.99466911	      0.00000000	     34.32000000
      0.11000000	      1.72880121	     -8.07255761	    -10.25622449	     -0.00423131	      0.00403036	     -0.00078352	    -21.74741202	     -3.24852185	    -13.43482445	     -2.15007439	      9.25298556	      6.01990666	    -28.79855177	     18.92211857	     32.71094861	      0.00000000	     34.32000000
      0.12000000	      1.68631686	     -8.09816767	    -10.45713510	     -0.00423131	      0.00403036	     -0.00078352	    -21.78120329	     -3.47248665	    -13.44431076	     -2.31941959	      9.23191837	      6.08481455	    -28.51638577	     19.00101664	     31.69725894	      0.00000000	     34.32000000
